# xmcd CD database file
#
# Track frame offsets:
#	150
#	13900
#	30780
#	48595
#	63805
#	80017
#	96750
#	110725
#	123002
#	135075
#	147295
#	165872
#	178912
#	192890
#	205252
#	224852
#	238920
#	260100
#
# Disc length: 3652 seconds
#
# Revision: 1
# Processed by: cddbd v1.5PL3 Copyright (c) Steve Scherf et al.
# Submitted via: CDex 1.51
#
DISCID=020e4212
DTITLE=Anne Murray - Croonin'
DYEAR=1993
DGENRE=Country
TTITLE0=Old Cape Cod
TTITLE1=The Wayward Wind
TTITLE2=Secret Love
TTITLE3=Fever
TTITLE4=When I Fall In Love
TTITLE5=Allegheny Moon
TTITLE6=You Belong To Me
TTITLE7=Born To Be With You
TTITLE8=True Love
TTITLE9=Teach Me Tonight
TTITLE10=Cry Me a River
TTITLE11=Make Love To Me
TTITLE12=Hey There
TTITLE13=It Only Hurts For A Little While
TTITLE14=I'm Confessin' That I Love You/I'm A Fool To Care
TTITLE15=Wanted
TTITLE16=I Really Don't Want To Know
TTITLE17=Moments To Remember
EXTD=\n\n                                                                                      Les YEAR: 1993
EXTT0=
EXTT1=
EXTT2=
EXTT3=
EXTT4=
EXTT5=
EXTT6=
EXTT7=
EXTT8=
EXTT9=
EXTT10=
EXTT11=
EXTT12=
EXTT13=
EXTT14=
EXTT15=
EXTT16=
EXTT17=
PLAYORDER=
